<?xml version="1.0" encoding="utf-8"?>
<!-- Generator: Adobe Illustrator 22.1.0, SVG Export Plug-In . SVG Version: 6.00 Build 0)  -->
<svg version="1.1" id="Layer_1" xmlns="http://www.w3.org/2000/svg" xmlns:xlink="http://www.w3.org/1999/xlink" x="0px" y="0px"
	 viewBox="0 0 271.5 100" style="enable-background:new 0 0 271.5 100;" xml:space="preserve">
<style type="text/css">
	.st0{fill:#FFFFFF;}
	.st1{fill:#27AAE1;}
	.st2{fill:#0856A4;}
	.st3{fill:#EB2227;}
	.st4{fill:#10AB4D;}
	.st5{fill:#F37E20;}
	.st6{fill:#90298D;}
	.st7{fill:#8CC541;}
	.st8{fill:#FFC115;}
	.st9{fill:#4C3191;}
	.st10{fill:#FADA4C;}
	.st11{fill:#EC1273;}
</style>
<g>
	<path class="st0" d="M84,94c-0.2,0-0.2-0.2-0.2-0.5V88c0-0.4,0.7-0.4,0.7,0v5.3h3.1c0.5,0,0.5,0.7,0,0.7H84z"/>
	<path class="st0" d="M90,90.6c0-1.6,0.9-2.9,2.2-3.1c0.2,0,0.7,0,0.9,0c1.3,0.2,2.2,1.5,2.2,3.1c0,2-1.3,3.3-2.7,3.3
		C91.1,94,90,92.6,90,90.6L90,90.6z M90.7,90.6c0,1.5,0.9,2.7,2,2.7s2-0.9,2-2.7c0-1.3-0.7-2.2-1.8-2.4c-0.2,0-0.4,0-0.7,0
		C91.3,88.4,90.7,89.3,90.7,90.6L90.7,90.6z"/>
	<path class="st0" d="M98.2,90.6c0-1.6,0.9-2.9,2.2-3.1c0.2,0,0.7,0,0.9,0c1.3,0.2,2.2,1.5,2.2,3.1c0,2-1.3,3.3-2.7,3.3
		C99.6,94,98.2,92.6,98.2,90.6L98.2,90.6z M98.9,90.6c0,1.5,0.9,2.7,2,2.7s2-0.9,2-2.7c0-1.3-0.7-2.2-1.8-2.4c-0.2,0-0.4,0-0.7,0
		C99.6,88.4,98.9,89.3,98.9,90.6L98.9,90.6z"/>
	<path class="st0" d="M110.6,87.7c0.4-0.3,0.7,0.2,0.5,0.5l-2.1,2.3l2.3,2.9c0.2,0.4-0.1,0.7-0.4,0.4l-2.2-2.9l-0.9,0.9v1.8
		c0,0.5-0.7,0.5-0.7,0v-5.8c0-0.4,0.7-0.4,0.7,0v3.1l0.9-0.9L110.6,87.7z"/>
	<path class="st0" d="M118.6,88.2c0-0.2,0.2-0.5,0.4-0.5h3.3c0.5,0,0.5,0.7,0,0.7h-3.1v2.4h3.1c0.2,0,0.5,0.7,0,0.7h-3.1v2.2
		c0,0.4-0.7,0.4-0.7,0L118.6,88.2L118.6,88.2z"/>
	<path class="st0" d="M125.5,90.6c0-1.6,0.9-2.9,2.2-3.1c0.2,0,0.7,0,0.9,0c1.3,0.2,2.2,1.5,2.2,3.1c0,2-1.3,3.3-2.7,3.3
		C126.8,94,125.5,92.6,125.5,90.6L125.5,90.6z M126.2,90.6c0,1.5,0.9,2.7,2,2.7c1.1,0,2-0.9,2-2.7c0-1.3-0.7-2.2-1.8-2.4
		c-0.2,0-0.4,0-0.7,0C126.8,88.4,126.2,89.3,126.2,90.6L126.2,90.6z"/>
	<path class="st0" d="M134.8,91.7v2c0,0.4-0.7,0.4-0.7,0v-5.5c0-0.2,0.2-0.5,0.2-0.5h2c1.3,0,2.2,0.9,2.2,2c0,0.9-0.4,1.8-1.5,2
		l1.3,1.8c0.2,0.5-0.2,0.9-0.4,0.5l-1.8-2.2h-1.3V91.7z M134.8,91.1h1.8c1.1,0,1.6-0.7,1.6-1.3c0-0.9-0.7-1.3-1.6-1.3h-1.8V91.1z"/>
	<path class="st0" d="M143.7,92.9l1.8-4.4c0-0.2,0.5-0.2,0.7,0l1.8,4.4l1.8-5.1c0.2-0.4,0.7-0.2,0.7,0.2l-2.2,5.8
		c-0.2,0.2-0.4,0.2-0.7,0l-1.8-4.4l-1.8,4.4c0,0.2-0.4,0.2-0.7,0L141,88c-0.2-0.4,0.5-0.7,0.7-0.2L143.7,92.9z"/>
	<path class="st0" d="M153.5,92.2l-0.7,1.6c-0.2,0.4-0.7,0-0.4-0.2l2.4-5.8c0-0.2,0.2-0.2,0.2-0.2s0.2,0,0.2,0.2l2.4,5.8
		c0.2,0.5-0.4,0.7-0.4,0.2l-0.7-1.6H153.5z M155,88.6l-1.3,3.1h2.7L155,88.6z"/>
	<path class="st0" d="M161.5,91.7v2c0,0.4-0.7,0.4-0.7,0v-5.5c0-0.2,0.2-0.5,0.2-0.5h2.2c1.3,0,2.2,0.9,2.2,2c0,0.9-0.4,1.8-1.5,2
		l1.3,1.8c0.2,0.5-0.2,0.9-0.5,0.5l-1.8-2.2h-1.4V91.7z M161.5,91.1h1.8c1.1,0,1.5-0.7,1.5-1.3c0-0.9-0.7-1.3-1.5-1.3h-1.8V91.1z"/>
	<path class="st0" d="M168.8,94c-0.2,0-0.4-0.2-0.4-0.5v-5.3c0-0.2,0.2-0.5,0.4-0.5h1.8c1.5,0,2.4,1.6,2.4,3.1s-0.9,3.1-2.4,3.1
		h-1.8V94z M169,93.3h1.6c1.3,0,1.8-1.3,1.8-2.4c0-1.3-0.7-2.4-1.8-2.4H169V93.3z"/>
	<path class="st0" d="M176.6,93.5c0,0.2-0.2,0.5-0.4,0.5s-0.4-0.2-0.4-0.5c0-0.2,0.2-0.4,0.4-0.4S176.6,93.3,176.6,93.5L176.6,93.5z
		"/>
	<path class="st0" d="M187.9,87.7c0.4,0,0.4,0.7,0,0.7h-1.8c0,1.8,0,3.6,0,5.3c0,0.5-0.2,0.4-0.2,0.4c-0.2,0-0.2-0.2-0.2-0.4v-5.3
		h-1.8c-0.4,0-0.4-0.7,0-0.7H187.9z"/>
	<path class="st0" d="M191.6,90.6h3.1V88c0-0.4,0.7-0.4,0.7,0v5.8c0,0.4-0.7,0.4-0.7,0v-2.4c-1.1,0-2,0-3.1,0v2.4
		c0,0.4-0.7,0.4-0.7,0V88c0-0.4,0.7-0.4,0.7,0V90.6z"/>
	<path class="st0" d="M198.8,87.7c0-0.4,0.7-0.4,0.7,0v5.8c0,0.5-0.7,0.5-0.7,0V87.7z"/>
	<path class="st0" d="M206.5,88c0-0.4,0.7-0.4,0.7,0v5.5c0,0.5-0.7,0.5-0.7,0.2l-3.3-4.9v1.3v3.3c0,0.5-0.7,0.5-0.7,0V88
		c0-0.4,0.4-0.7,0.7-0.2l3.3,4.9V88z"/>
	<path class="st0" d="M214.3,87.7c0.2-0.4,0.7,0.2,0.4,0.5l-2.2,2.2l2.4,2.9c0.2,0.4-0.2,0.9-0.5,0.4l-2.4-2.9l-0.9,0.9v1.8
		c0,0.5-0.7,0.5-0.7,0v-5.8c0-0.4,0.7-0.4,0.7,0v3.1l0.9-0.9L214.3,87.7z"/>
	<path class="st0" d="M222.9,92.2l-0.7,1.6c-0.2,0.4-0.7,0-0.4-0.2l2.4-5.8c0-0.2,0.2-0.2,0.2-0.2s0.2,0,0.2,0.2l2.4,5.8
		c0.2,0.5-0.5,0.7-0.5,0.2l-0.7-1.6H222.9z M224.5,88.6l-1.3,3.1h2.7L224.5,88.6z"/>
	<path class="st0" d="M230.9,90.6h3.1V88c0-0.4,0.7-0.4,0.7,0v5.8c0,0.4-0.7,0.4-0.7,0v-2.4c-1.1,0-2,0-3.1,0v2.4
		c0,0.4-0.7,0.4-0.7,0V88c0-0.4,0.7-0.4,0.7,0V90.6z"/>
	<path class="st0" d="M238.5,93.3h3.3c0.4,0,0.4,0.7,0,0.7h-3.5c-0.2,0-0.5-0.2-0.5-0.5v-5.3c0-0.2,0.2-0.5,0.5-0.5h3.5
		c0.4,0,0.4,0.7,0,0.7h-3.3v2.2h3.1c0.2,0,0.5,0.7,0,0.7h-3.1V93.3z"/>
	<path class="st0" d="M245.8,92.2l-0.7,1.6c-0.2,0.4-0.7,0-0.4-0.2l2.4-5.8c0-0.2,0.2-0.2,0.2-0.2s0.2,0,0.2,0.2l2.4,5.8
		c0.2,0.5-0.4,0.7-0.4,0.2l-0.7-1.6H245.8z M247.3,88.6l-1.3,3.1h2.7L247.3,88.6z"/>
	<path class="st0" d="M253.6,94c-0.2,0-0.5-0.2-0.5-0.5v-5.3c0-0.2,0.2-0.5,0.5-0.5h1.8c1.6,0,2.4,1.6,2.4,3.1s-0.9,3.1-2.4,3.1
		h-1.8V94z M253.8,93.3h1.3c1.3,0,2.1-1.4,2.1-2.5c0-1.3-1-2.4-2.1-2.4h-1.3V93.3z"/>
	<path class="st0" d="M261.1,93.5c0,0.2-0.2,0.5-0.4,0.5c-0.2,0-0.5-0.2-0.5-0.5c0-0.2,0.2-0.4,0.5-0.4
		C261.1,93.1,261.1,93.3,261.1,93.5L261.1,93.5z"/>
	<path class="st0" d="M100.7,78.6h-7.8l-10-30.2h8l5.8,21.3l5.1-18.6c0.7-1.8,1.8-2.7,3.6-2.7h5.5L100.7,78.6z"/>
	<path class="st0" d="M115.1,39.6h3.8c1.1,0,1.8,0.4,2.7,1.1c0.7,0.7,1.1,1.8,1.1,2.7v2.4h-7.5L115.1,39.6L115.1,39.6z M115.1,48.5
		h3.8c1.1,0,1.8,0.5,2.7,1.1c0.7,0.7,1.1,1.8,1.1,2.7v26.4h-7.5L115.1,48.5L115.1,48.5z"/>
	<path class="st0" d="M124.6,68.7h7.3c0,1.6,0.7,2.7,1.6,3.3c1.1,0.7,2.4,1.1,4.4,1.1c1.3,0,2.4-0.2,3.3-0.9
		c0.9-0.4,1.3-1.3,1.3-2.2c0-1.3-1.6-2.4-4.7-3.1c-1.3-0.2-2.2-0.5-2.9-0.7c-3.8-0.9-6.4-2.2-7.8-3.6c-1.6-1.3-2.2-3.1-2.2-5.5
		c0-2.9,1.1-5.3,3.1-7.1c2.2-1.8,4.9-2.7,8.4-2.7c3.8,0,6.7,0.9,9.1,2.7c2,2,3.1,4.4,3.3,7.3h-4.7c-1.3,0-2.4-0.7-3.1-2
		c-0.2-0.2-0.7-0.7-0.9-0.9c-0.9-0.7-2-1.1-3.5-1.1c-1.6,0-2.4,0.2-3.3,0.7c-0.7,0.4-0.9,1.1-0.9,2c0,1.1,1.8,2.2,5.6,3.1
		c0.4,0.2,0.9,0.2,1.1,0.4c0.2,0,0.7,0.2,0.9,0.2c3.8,0.9,6.2,2.2,7.8,3.3c1.3,1.3,2,3.1,2,5.5c0,3.3-1.1,6-3.6,7.8
		c-2.2,1.8-5.3,2.4-9.8,2.4c-4.2,0-7.1-0.9-9.3-2.7c-2-1.8-3.1-4.2-3.1-7.5l0,0h0.6V68.7z"/>
	<path class="st0" d="M178.8,48.5v17.8c0,5.3-1.3,8.9-4,10.6c-2.7,1.8-5.5,2.4-8.9,2.4c-3.1-0.2-6-1.1-8.4-2.7
		c-2.7-1.8-3.8-5.1-3.8-10.4V48.5h7.3v19.3c0,1.8,0.5,3.1,1.6,4s2.2,1.3,3.5,1.3s2.4-0.4,3.6-1.3c1.1-0.9,1.6-2.2,1.6-4V52.2
		c0-1.1,0.4-2,1.1-2.7c0.7-0.7,1.5-1.1,2.7-1.1L178.8,48.5L178.8,48.5z"/>
	<path class="st0" d="M200.5,77.5c-1.6,0.9-3.1,1.3-4.9,1.6c-1.8,0.2-3.1,0.2-4.4,0.2c-2.7,0-4.9-0.7-6.9-2.2c-2-1.6-2.9-4-2.9-7.3
		c0-3.1,0.9-5.5,2.7-6.9c1.8-1.3,4-2.2,6.9-2.7c0.5-0.1,0.8-0.2,1.3-0.2c0.6,0,1.1-0.2,1.8-0.2c3.1-0.5,4.7-1.3,4.7-2.9
		c0-1.1-0.7-1.8-1.8-2.2c-1.1-0.5-2.2-0.5-3.1-0.5c-1.1,0-2,0.2-2.7,0.5c-0.9,0.2-1.3,0.9-1.8,1.8h-7.3c0.2-2.4,1.3-4.2,3.1-5.8
		c2-1.8,4.7-2.7,8.4-2.7c4,0,7.1,0.7,9.1,2.2s3.1,3.5,3.1,6.4V67c0,3.1-0.4,5.3-1.6,7.1C203.2,75.5,201.9,76.7,200.5,77.5
		L200.5,77.5z M198.8,63.6c-1.1,0.4-2.4,1.1-4.2,1.5l-2.4,0.5c-1.3,0.4-2.2,0.9-2.9,1.5c-0.5,0.9-0.7,1.8-0.7,2.4
		c0,1.1,0.2,2,0.9,2.7s1.6,0.9,2.9,0.9c2,0,3.5-0.7,4.7-1.8c1.1-1.1,1.8-2.9,1.8-5.1v-2.6H198.8z"/>
	<path class="st0" d="M209.4,12.3h4c1.1,0,1.8,0.5,2.7,1.1c0.7,0.7,1.1,1.5,1.1,2.7v62.8h-7.5V12.3H209.4z"/>
	<path class="st1" d="M227.8,8.7v43.7c0.9-1.3,2-2.7,3.5-3.5c1.3-0.7,2.9-1.1,4.7-1.1c3.3,0,6.2,1.6,8.4,4.4
		c2.2,2.9,3.3,6.9,3.3,11.5c0,4.7-1.1,8.4-3.3,11.5c-1.1,1.3-2.4,2.4-4.4,3.1c-1.8,0.7-3.8,0.9-5.6,0.9c-3.5,0-6.7-0.9-9.5-2.9
		c-2.9-2-4.4-5.5-4.4-10.9V4.8h3.8c1.1,0,1.8,0.4,2.7,1.1C227.6,6.8,227.8,7.6,227.8,8.7L227.8,8.7z M240.2,63.3
		c0-2.7-0.4-4.9-1.5-6.4s-2.7-2.4-4.4-2.4c-2,0-3.6,0.7-4.7,2.2c-1.1,1.5-1.6,3.8-1.6,6.4c0,3.1,0.5,5.5,1.6,6.9
		c1.1,1.5,2.7,2.4,4.7,2.4s3.5-0.9,4.7-2.4C239.8,68.7,240.2,66.4,240.2,63.3L240.2,63.3z"/>
	<path class="st1" d="M252,39.6h4c1.1,0,1.8,0.4,2.7,1.1c0.7,0.7,1.1,1.8,1.1,2.7v2.4H252V39.6z M252,48.5h4c1.1,0,1.8,0.5,2.7,1.1
		c0.7,0.7,1.1,1.8,1.1,2.7v26.4H252V48.5z"/>
	<path class="st0" d="M198.3,23.4h4c1.1,0,1.8,0.4,2.7,1.1c0.7,0.7,1.1,1.8,1.1,2.7v18.4h-7.5V23.4H198.3z"/>
	<path class="st2" d="M70.5,66c-0.2,0-0.5,0-0.5,0.2L59.8,74c-0.7,0.4-1.1,1.3-1.1,1.8l-0.2,13.8c0,0.4,0.2,0.7,0.5,0.7
		c0.2,0,0.4,0,0.4-0.2l10.2-7.8c0.7-0.4,1.1-1.3,1.1-1.8l0.2-13.8C70.9,66.2,70.9,66,70.5,66L70.5,66z"/>
	<path class="st3" d="M42.7,69.8c-0.4,0-0.7,0.2-0.7,0.7v13.8c0,0.7,0.4,1.3,1.1,1.5l8.7,4.2l1.3,0.7c0.2,0,0.2,0.2,0.4,0
		c0.4,0,0.7-0.2,0.7-0.7l0.2-13.8c0-0.7-0.5-1.3-1.1-1.5l-10-4.9C43,69.8,42.7,69.8,42.7,69.8L42.7,69.8z"/>
	<path class="st4" d="M70.7,45.4c-0.2,0-0.4,0-0.4,0.2l-10.2,7.5c-0.7,0.4-1.1,1.3-1.1,1.8l-0.2,13.8c0,0.4,0.2,0.7,0.4,0.7
		s0.5,0,0.5-0.2l10.2-7.8c0.7-0.4,1.1-1.3,1.1-1.8l0.2-13.8C71.1,45.4,70.9,45.1,70.7,45.4L70.7,45.4z"/>
	<path class="st5" d="M43,49.1c-0.4,0-0.7,0.2-0.7,0.7l-0.2,13.8c0,0.7,0.4,1.3,1.1,1.5l8.7,4.2l1.3,0.7c0.2,0,0.2,0.2,0.4,0
		c0.2,0,0.7-0.2,0.7-0.7l0.2-13.8c0-0.7-0.5-1.3-1.1-1.5l-10-4.9C43.2,49.1,43,49.1,43,49.1L43,49.1z"/>
	<path class="st6" d="M56.7,13.9c-0.4,0-0.9,0.2-1.3,0.4l-10,7.8c-0.7,0.5-0.7,0.9-0.2,1.1l10.9,5.3c0.2,0,0.4,0.2,0.7,0
		c0.4,0,0.9-0.2,1.3-0.4l10.2-7.8c0.7-0.4,0.7-0.9,0.2-1.1l-10.9-5.3C57.2,13.9,56.9,13.9,56.7,13.9L56.7,13.9z"/>
	<path class="st7" d="M70.9,24.1c-0.2,0-0.4,0-0.4,0.2l-10.2,7.8c-0.7,0.4-1.1,1.3-1.1,1.8l-0.2,14c0,0.5,0.2,0.7,0.4,0.7
		s0.4,0,0.4-0.2L70,40.5c0.7-0.5,1.1-1.3,1.1-1.8L71.4,25C71.4,24.3,71.1,24.1,70.9,24.1L70.9,24.1z"/>
	<path class="st8" d="M43,28.1c-0.4,0-0.7,0.2-0.7,0.7l-0.2,13.8c0,0.7,0.4,1.3,1.1,1.5l8.7,4.2l1.3,0.7c0.2,0,0.2,0.2,0.4,0
		c0.2,0,0.7-0.2,0.7-0.7l0.2-13.8c0-0.7-0.5-1.3-1.1-1.6l-10-4.9C43.4,28.1,43.2,28.1,43,28.1L43,28.1z"/>
	<path class="st9" d="M10.6,53.1c-0.5,0-0.7,0.2-0.7,0.7L9.7,67.6c0,0.7,0.4,1.3,1.1,1.5l8.7,4.2l1.3,0.7c0.2,0,0.2,0.2,0.4,0
		c0.5,0,0.7-0.2,0.7-0.7l0.2-13.8c0-0.7-0.4-1.3-1.1-1.6L11,53C11,53.4,10.8,53.1,10.6,53.1L10.6,53.1z"/>
	<path class="st10" d="M12.8,48.7l9.5,4.4L22.5,40l-9.3,7.3C12.3,47.8,12.3,48.5,12.8,48.7L12.8,48.7z"/>
	<path class="st6" d="M26.5,61.3c-0.2,0-0.7,0.2-0.7,0.7l-0.2,13.8c0,0.7,0.5,1.3,1.1,1.6l8.6,4.2l1.3,0.7c0.2,0,0.2,0.2,0.4,0
		c0.2,0,0.7-0.2,0.7-0.7l0.2-13.8c0-0.7-0.4-1.3-1.1-1.5l-10-4.9C27,61.6,26.8,61.3,26.5,61.3L26.5,61.3z"/>
	<path class="st11" d="M26.8,40.3c-0.2,0-0.7,0.2-0.7,0.7l-0.2,13.8c0,0.7,0.4,1.3,1.1,1.5l8.7,4.2l1.3,0.7c0.2,0,0.2,0.2,0.4,0
		c0.2,0,0.7-0.2,0.7-0.7l0.2-13.8c0-0.7-0.5-1.3-1.1-1.6l-10-4.9C27.2,40.5,27,40.3,26.8,40.3L26.8,40.3z"/>
	<path class="st5" d="M38.5,27.4l-9.3,7.3c-0.7,0.4-0.7,0.9-0.2,1.1l9.5,4.4V27.4z"/>
</g>
</svg>
